<?xml version="1.0" encoding="UTF-8"?>
<!DOCTYPE svg PUBLIC "-//W3C//DTD SVG 1.1//EN" "http://www.w3.org/Graphics/SVG/1.1/DTD/svg11.dtd">
<!-- Creator: CorelDRAW 2019 (64-Bit) -->
<svg xmlns="http://www.w3.org/2000/svg" xml:space="preserve" width="651.58mm" height="383.32mm" version="1.1" style="shape-rendering:geometricPrecision; text-rendering:geometricPrecision; image-rendering:optimizeQuality; fill-rule:evenodd; clip-rule:evenodd"
viewBox="0 0 15172.34 8925.78"
 xmlns:xlink="http://www.w3.org/1999/xlink"
 xmlns:xodm="http://www.corel.com/coreldraw/odm/2003">
 <defs>
  <style type="text/css">
   <![CDATA[
    .fil3 {fill:#FEFEFE}
    .fil4 {fill:#FFED00}
    .fil6 {fill:#E5097F}
    .fil0 {fill:#00A0E3}
    .fil5 {fill:#01A9FF}
    .fil1 {fill:#01A9FF}
    .fil2 {fill:#FEFEFE;fill-rule:nonzero}
   ]]>
  </style>
 </defs>
 <g id="Слой_x0020_1">
  <metadata id="CorelCorpID_0Corel-Layer"/>
  <g id="_1676062422048">
   <g>
    <path class="fil0" d="M8416.9 0c2391.91,0 4415.43,1575.64 5090.27,3745.49l-119.2 62.8c-650.79,-2128.1 -2629.9,-3676.09 -4971.08,-3676.09 -2205.58,0 -4089.9,1373.85 -4844.92,3312.32 -39.63,-19.21 -79.79,-37.48 -120.46,-54.78 776,-1984.15 2706.3,-3389.74 4965.38,-3389.74z"/>
    <path class="fil0" d="M8416.9 395.35c2164.26,0 4002.77,1393.36 4668.32,3331.82l-139.84 0c-660,-1864.14 -2438.18,-3199.62 -4528.48,-3199.62 -2059.58,0 -3816.1,1296.53 -4498.62,3117.79 -37.12,-25.35 -74.88,-49.83 -113.29,-73.36 708.47,-1857.17 2505.87,-3176.64 4611.9,-3176.64z"/>
   </g>
   <path class="fil1" d="M2154.19 8279.11l0 -284.68 0 -125.59 0 -184.83 0 -839.81 373.49 -177.8 114.13 52.95 0 981.96 0 184.83 0 108.29 0 297.94c-58.27,4.12 -117.08,6.28 -176.4,6.28 -105.42,0 -209.28,-6.7 -311.22,-19.55z"/>
   <path class="fil1" d="M4253.79 4342.27l0 940.01 0 184.83 0 924.23 0 184.83 0 953.4c-172.29,181.71 -371.97,337.16 -592.42,459.8l0 -712.08 0 -2696.12 0 -238.9 0 -264.2 -1037.06 -463.08 -470.12 209.92 0 -137.8 -1044.07 466.2 0 137.81 -143.87 64.24 0 357.3c-235.31,313.1 -374.8,702.32 -374.8,1124.15 0,278.75 60.93,543.27 170.16,780.99l286.96 -128.69 0 1361.65c-273.1,-192.28 -505.39,-438.62 -681.31,-723.48l-2.59 0c-231.22,-375.32 -364.66,-817.28 -364.66,-1290.48 0,-1361.04 1103.34,-2464.38 2464.38,-2464.38 704.7,0 1340.26,295.84 1789.41,770.04l0 184.83 0 14.97z"/>
   <path class="fil1" d="M1944.62 7145.76l0 1097.72 0 9.3 -41.85 -18.69c-205.44,-47.99 -400.98,-121.69 -583.08,-217.5l0 -42.86 0 -827.97 0 -223.93 -112.34 50.16 0 -558.09 112.34 -50.16 0 -1400.42 -143.87 64.24 0 -558.09 143.87 -64.24 0 -137.81 624.93 -279.05 0 137.8 297.95 -133.04 340.58 -152.08 41.16 -18.38 827.49 369.5 0 49.41 0 230.31 0 558.1 0 97.39 0 118.46 0 28.51 0 137.35 0 106.9 -179.5 240.45 179.5 80.15 0 1.16 0 279.77 0 350.67 0 196.68 0 116.06 0 345.36 0 1230 0 8.02 0 558.09 0 0.79 -0.88 -0.39 -599.54 -267.71 0 -22.67 0 -544.23 0 -456.74 0 -612.36 0 -238.15 0 -312.74 0 -32.31 -224.6 -100.29 -472.59 211.02 0 -558.1 474.03 -211.67 0 -0 223.15 -303.1 0 -178.24 0 -558.1 0 -230.31 0 -27.52 -227.07 -101.39 -679.69 303.5 0 1067.56 0 332.86 0 558.09 0 502.98z"/>
   <polygon class="fil1" points="6546.93,7477.14 7115.34,7477.14 7115.34,6402.79 7918.34,7087.97 7918.34,7477.14 8486.75,7477.14 8486.75,4494.49 7918.34,4166.32 7918.34,6340.75 7115.34,5655.57 7115.34,4162.12 6546.93,4490.29 "/>
   <path class="fil1" d="M5137.69 4733.36l511.87 0 152.31 87.94 0 1057.73 -803 0 0 -1065.52 138.83 -80.15zm664.17 1714.08l0 1039.57 568.41 0 0 -1039.57 0 -568.41 0 -374.65 0 -32.03 0 -322.88 0 -416.11 0 -240.24 0 -1.63 -568.41 -326.54 -0 0 -48.86 0 -718.76 0 -35.38 0 -13.48 0 -0 0 -554.93 320.39 0 656.34 0 737.35 0 568.41 0 1039.57 568.41 0 0 -1039.57 803 0z"/>
   <polygon class="fil1" points="10034.82,7477.14 10603.22,7477.14 10603.22,6908.73 10603.22,6703.34 10603.22,6532.03 10034.82,6203.85 10034.82,6447.43 10034.82,6703.34 10034.82,6908.73 9231.82,6908.73 9231.82,4809.33 9380.49,4723.5 9926.09,4723.5 10034.82,4786.27 10034.82,5165.56 10034.82,5547.51 10603.22,5875.69 10603.22,5165.56 10603.22,4723.5 10603.22,4482.39 10036.33,4155.09 10034.82,4155.09 9231.82,4155.09 9231.81,4155.09 8663.41,4483.26 8663.41,4723.5 8663.41,6908.73 8663.41,7477.14 9231.82,7477.14 "/>
   <path class="fil1" d="M12151.29 7477.14l568.41 0 0 -568.41 0 -205.4 0 -255.9 0 -568.41 0 -713.46 0 -442.07 0 -241.11 -566.9 -327.3 -1.51 0 -803 0 -0 0 -568.41 328.17 0 240.24 0 2185.23 0 568.41 568.41 0 803 0zm0 -1029.71l0 255.9 0 205.4 -803 0 0 -2185.23 803 0 0 442.07 0 713.46 0 568.41z"/>
   <polygon class="fil1" points="13665.16,3988.37 13665.16,4126.17 13963.11,3993.13 14303.69,3841.05 14344.85,3822.67 15172.34,4192.17 15172.34,4241.58 15172.34,4471.89 15172.34,5029.98 15172.34,5127.38 15172.34,5245.83 15172.34,5274.34 15172.34,5411.69 15172.34,5518.58 14992.85,5759.03 15172.34,5839.18 15172.34,5840.34 15172.34,6120.11 15172.34,6470.78 15172.34,6667.46 15172.34,6783.52 15172.34,7128.88 15172.34,8358.87 15172.34,8366.9 15172.34,8924.99 15172.34,8925.78 15171.46,8925.39 14571.92,8657.67 14571.92,8635 14571.92,8090.77 14571.92,7634.03 14571.92,7021.67 14571.92,6783.52 14571.92,6470.78 14571.92,6438.47 14347.32,6338.18 13874.73,6549.21 13874.73,5991.11 14348.77,5779.44 14348.77,5779.44 14571.92,5476.33 14571.92,5298.09 14571.92,4739.99 14571.92,4509.68 14571.92,4482.16 14344.85,4380.77 13665.16,4684.27 13665.16,5751.83 13665.16,6084.69 13665.16,6642.78 13665.16,7156.53 13665.16,8252.78 13040.23,7973.73 13040.23,6921.83 12927.89,6971.99 12927.89,6413.9 13040.23,6363.74 13040.23,4963.32 12896.36,5027.56 12896.36,4469.46 13040.23,4405.22 13040.23,4267.41 "/>
   <path class="fil2" d="M4793.22 8572.4l0 351.64 -362.77 0 0 -1082.28 1778.32 0 168.53 88.06 0 164.61 0 223.19 0 171.88 -154.62 80.79c-477.93,0 -951.08,2.11 -1429.46,2.11zm0 -477.97l0 225.3c408.89,0 812.52,-2.11 1221.32,-2.11l0 -223.19 -1221.32 0z"/>
   <path class="fil2" d="M8354.39 8924.03l-495.78 0 -776.93 -606.41 1033.89 0 0 -223.19 -1224.34 0 0 829.61 -362.77 0 0 -1082.28c593.78,0 1187.57,0 1781.35,0l168.53 88.06 0 164.61 0 223.19 0 171.88 -154.62 80.79c-141.93,0 -283.87,0 -425.8,0l456.48 353.74z"/>
   <path class="fil2" d="M9026.15 8924.03l-362.77 0 0 -742.99 362.77 189.56 0 553.44zm-362.77 -871.92l0 -210.36 362.77 0 0 401.02 -362.77 -190.66z"/>
   <path class="fil2" d="M12719.71 8094.43l-701.35 0 0 829.61 -362.77 0 0 -829.61 -510.8 0 0 829.61 -362.77 0 -0 0 -0.01 -0 -1241.94 -697.68 0 697.69 -362.77 0 0 -1082.28 362.77 0 0 0.01 0 -0.01 1241.95 675.72 0 -675.72c645.89,0 1291.79,0 1937.69,0l0 252.67z"/>
   <path class="fil3" d="M10603.22 3999.9l1866.63 0.41c19.11,-158.97 -3.03,-502.29 -7.02,-678.78l-274.61 4.64 1 -356.76 -191.62 -2.85 6.99 -450.9c-77.54,-0.84 -579.33,157.28 -674.5,189.48l-9.1 754.29 -419.98 6.04c-16.08,51.13 -8.1,105.94 -4.97,158.44 10.42,174.08 10.11,125.73 -44.39,136.59 -48.57,-40.82 -24.47,-150.64 -25.18,-212.44l-9.47 -576.27 -213.79 -0.92 0 1029.03z"/>
   <path class="fil4" d="M8593.38 3999.46l1874.3 0.41 0 -2218.03c-48.26,-27.93 -108.34,-60.63 -149.35,-71.68 -261.32,96.64 -217.61,168.24 -215.71,271.87 2.28,125.22 19.99,281.37 4.48,402.25l-511.6 1.84 2.92 -537.98 -477.56 -9.6 -9.74 -842.13 -354.38 -29.19 0.42 926.42c-45.4,12.9 -102.35,23.13 -163.77,32.37l0 2073.46z"/>
   <path class="fil5" d="M6448 1998.43l-359.31 -119.97 -6.51 -253.92 -328.91 2.51 11.43 747.61 -243.16 0.1 -4.55 965.82c-79.26,15.64 -156.22,6.67 -245.59,4.82l3.04 -463.38c-139.14,-5.86 -576.32,-18.5 -687.99,4.88 -3.06,321.94 -25.28,850.4 -2.86,1111.69l1864.4 0.41 0 -2000.57z"/>
   <path class="fil6" d="M7875.29 2537.73c-25.35,-262.35 4.5,-942.34 9.01,-1275.59 1.25,-91.97 31.64,-132.8 -60.3,-174.94 -53.03,-24.28 -154.65,-74.33 -204.37,-90.86 -116.41,36.57 -274.85,97.32 -275.05,190.05l-1.49 262.58 -303.87 0.71 -10.38 921.3 -445.3 1.93 0 1626.11 1874.3 0.41 0 -2054.58c-120.88,16.34 -239.81,33.42 -309.65,62.43l-7.24 892.5 -128.47 -34.13 -5.24 -316.55 -131.94 -11.38z"/>
  </g>
 </g>
</svg>
