<?xml version="1.0" encoding="UTF-8"?>
<!DOCTYPE svg PUBLIC "-//W3C//DTD SVG 1.0//EN" "http://www.w3.org/TR/2001/REC-SVG-20010904/DTD/svg10.dtd">
<!-- Creator: CorelDRAW 2019 (64-Bit) -->
<svg xmlns="http://www.w3.org/2000/svg" xml:space="preserve" width="100mm" height="62.7734mm" version="1.0" style="shape-rendering:geometricPrecision; text-rendering:geometricPrecision; image-rendering:optimizeQuality; fill-rule:evenodd; clip-rule:evenodd"
viewBox="0 0 445.11 279.41"
 xmlns:xlink="http://www.w3.org/1999/xlink"
 xmlns:xodm="http://www.corel.com/coreldraw/odm/2003">
 <defs>
  <style type="text/css">
   <![CDATA[
    .fil0 {fill:black}
    .fil5 {fill:#01A9FF}
    .fil1 {fill:#01A9FF}
    .fil6 {fill:#E5097F}
    .fil3 {fill:#FEFEFE}
    .fil4 {fill:#FFED00}
    .fil2 {fill:#FEFEFE;fill-rule:nonzero}
   ]]>
  </style>
 </defs>
 <g id="Слой_x0020_1">
  <metadata id="CorelCorpID_0Corel-Layer"/>
  <g id="_2111786349968">
   <path class="fil0" d="M120.27 279.02l-17.27 -7.69 -39.9 -17.82c-15.28,-1.93 -33.76,-13.32 -46.87,-30.77l-0.48 0 -3.77 -6.12c-7.88,-12.78 -11.99,-27.41 -11.99,-42.42 0,-44.72 36.26,-80.99 80.99,-80.99 6.14,0 12.19,0.69 18.06,2.03 25.55,-57.62 82.82,-95.24 146.46,-95.24 67.99,0 128.33,42.92 150.93,106.39l7.01 -3.13 0 3.81 5.91 -2.64 35.74 15.96 0 115.71 0 43.3 -323.96 0 -0.88 0 0 -0.39z"/>
   <g>
    <path class="fil1" d="M245.52 12.87c66.11,0 122.04,43.55 140.7,103.53l-3.29 1.74c-17.99,-58.82 -72.69,-101.61 -137.4,-101.61 -60.96,0 -113.04,37.97 -133.91,91.55 -1.1,-0.53 -2.21,-1.04 -3.33,-1.51 21.45,-54.84 74.8,-93.69 137.24,-93.69z"/>
    <path class="fil1" d="M245.52 23.8c59.82,0 110.64,38.51 129.03,92.09l-3.87 0c-18.24,-51.52 -67.39,-88.44 -125.17,-88.44 -56.93,0 -105.48,35.84 -124.34,86.18 -1.03,-0.7 -2.07,-1.38 -3.13,-2.03 19.58,-51.33 69.26,-87.8 127.47,-87.8z"/>
   </g>
   <path class="fil1" d="M72.41 241.71l0 -7.87 0 -3.47 0 -5.11 0 -23.21 10.32 -4.91 3.15 1.46 0 27.14 0 5.11 0 2.99 0 8.23c-1.61,0.11 -3.24,0.17 -4.88,0.17 -2.91,0 -5.78,-0.19 -8.6,-0.54z"/>
   <path class="fil1" d="M130.45 132.89l0 25.98 0 5.11 0 25.55 0 5.11 0 26.35c-4.76,5.02 -10.28,9.32 -16.37,12.71l0 -19.68 0 -74.52 0 -6.6 0 -7.3 -28.66 -12.8 -12.99 5.8 0 -3.81 -28.86 12.89 0 3.81 -3.98 1.78 0 9.88c-6.5,8.65 -10.36,19.41 -10.36,31.07 0,7.7 1.68,15.02 4.7,21.59l7.93 -3.56 0 37.64c-7.55,-5.31 -13.97,-12.12 -18.83,-20l-0.07 0c-6.39,-10.37 -10.08,-22.59 -10.08,-35.67 0,-37.62 30.5,-68.12 68.12,-68.12 19.48,0 37.04,8.18 49.46,21.28l0 5.11 0 0.41z"/>
   <path class="fil1" d="M66.62 210.38l0 30.34 0 0.26 -1.16 -0.52c-5.68,-1.33 -11.08,-3.36 -16.12,-6.01l0 -1.18 0 -22.89 0 -6.19 -3.11 1.39 0 -15.43 3.11 -1.39 0 -38.71 -3.98 1.78 0 -15.43 3.98 -1.78 0 -3.81 17.27 -7.71 0 3.81 8.24 -3.68 9.41 -4.2 1.14 -0.51 22.87 10.21 0 1.37 0 6.37 0 15.43 0 2.69 0 3.27 0 0.79 0 3.8 0 2.95 -4.96 6.65 4.96 2.21 0 0.03 0 7.73 0 9.69 0 5.44 0 3.21 0 9.55 0 34 0 0.22 0 15.43 0 0.02 -0.02 -0.01 -16.57 -7.4 0 -0.63 0 -15.04 0 -12.62 0 -16.93 0 -6.58 0 -8.64 0 -0.89 -6.21 -2.77 -13.06 5.83 0 -15.43 13.1 -5.85 0 0 6.17 -8.38 0 -4.93 0 -15.43 0 -6.37 0 -0.76 -6.28 -2.8 -18.79 8.39 0 29.51 0 9.2 0 15.43 0 13.9z"/>
   <polygon class="fil1" points="193.83,219.54 209.54,219.54 209.54,189.85 231.74,208.78 231.74,219.54 247.45,219.54 247.45,137.1 231.74,128.03 231.74,188.13 209.54,169.19 209.54,127.91 193.83,136.98 "/>
   <path class="fil1" d="M154.88 143.7l14.15 0 4.21 2.43 0 29.24 -22.19 0 0 -29.45 3.84 -2.22zm18.36 47.38l0 28.73 15.71 0 0 -28.73 0 -15.71 0 -10.36 0 -0.89 0 -8.92 0 -11.5 0 -6.64 0 -0.04 -15.71 -9.03 0 0 -1.35 0 -19.87 0 -0.98 0 -0.37 0 0 0 -15.34 8.86 0 18.14 0 20.38 0 15.71 0 28.73 15.71 0 0 -28.73 22.19 0z"/>
   <polygon class="fil1" points="290.23,219.54 305.95,219.54 305.95,203.83 305.95,198.15 305.95,193.42 290.23,184.35 290.23,191.08 290.23,198.15 290.23,203.83 268.04,203.83 268.04,145.8 272.15,143.43 287.23,143.43 290.23,145.16 290.23,155.65 290.23,166.21 305.95,175.28 305.95,155.65 305.95,143.43 305.95,136.77 290.28,127.72 290.23,127.72 268.04,127.72 268.04,127.72 252.33,136.79 252.33,143.43 252.33,203.83 252.33,219.54 268.04,219.54 "/>
   <path class="fil1" d="M348.73 219.54l15.71 0 0 -15.71 0 -5.68 0 -7.07 0 -15.71 0 -19.72 0 -12.22 0 -6.66 -15.67 -9.05 -0.04 0 -22.19 0 -0 0 -15.71 9.07 0 6.64 0 60.4 0 15.71 15.71 0 22.19 0zm0 -28.46l0 7.07 0 5.68 -22.19 0 0 -60.4 22.19 0 0 12.22 0 19.72 0 15.71z"/>
   <polygon class="fil1" points="390.58,123.11 390.58,126.92 398.81,123.24 408.23,119.04 409.36,118.53 432.24,128.74 432.24,130.11 432.24,136.47 432.24,151.9 432.24,154.59 432.24,157.87 432.24,158.66 432.24,162.45 432.24,165.41 427.27,172.05 432.24,174.27 432.24,174.3 432.24,182.03 432.24,191.72 432.24,197.16 432.24,200.37 432.24,209.91 432.24,243.91 432.24,244.13 432.24,259.56 432.24,259.58 432.21,259.57 415.64,252.17 415.64,251.54 415.64,236.5 415.64,223.88 415.64,206.95 415.64,200.37 415.64,191.72 415.64,190.83 409.43,188.06 396.37,193.89 396.37,178.47 409.47,172.62 409.47,172.62 415.64,164.24 415.64,159.31 415.64,143.89 415.64,137.52 415.64,136.76 409.36,133.96 390.58,142.35 390.58,171.85 390.58,181.05 390.58,196.48 390.58,210.68 390.58,240.98 373.3,233.27 373.3,204.19 370.2,205.58 370.2,190.15 373.3,188.77 373.3,150.06 369.33,151.83 369.33,136.41 373.3,134.63 373.3,130.82 "/>
   <path class="fil2" d="M145.36 249.81l0 9.72 -10.03 0 0 -29.91 49.15 0 4.66 2.43 0 4.55 0 6.17 0 4.75 -4.27 2.23c-13.21,0 -26.29,0.06 -39.51,0.06zm0 -13.21l0 6.23c11.3,0 22.46,-0.06 33.76,-0.06l0 -6.17 -33.76 0z"/>
   <path class="fil2" d="M243.79 259.53l-13.7 0 -21.47 -16.76 28.58 0 0 -6.17 -33.84 0 0 22.93 -10.03 0 0 -29.91c16.41,0 32.82,0 49.24,0l4.66 2.43 0 4.55 0 6.17 0 4.75 -4.27 2.23c-3.92,0 -7.85,0 -11.77,0l12.62 9.78z"/>
   <path class="fil2" d="M262.35 259.53l-10.03 0 0 -20.54 10.03 5.24 0 15.3zm-10.03 -24.1l0 -5.81 10.03 0 0 11.08 -10.03 -5.27z"/>
   <path class="fil2" d="M364.44 236.6l-19.39 0 0 22.93 -10.03 0 0 -22.93 -14.12 0 0 22.93 -10.03 0 0 0 -0 0 -34.33 -19.28 0 19.28 -10.03 0 0 -29.91 10.03 0 0 0 0 -0 34.33 18.68 0 -18.68c17.85,0 35.7,0 53.56,0l0 6.98z"/>
   <path class="fil3" d="M305.95 123.43l51.59 0.01c0.53,-4.39 -0.08,-13.88 -0.19,-18.76l-7.59 0.13 0.03 -9.86 -5.3 -0.08 0.19 -12.46c-2.14,-0.02 -16.01,4.35 -18.64,5.24l-0.25 20.85 -11.61 0.17c-0.44,1.41 -0.22,2.93 -0.14,4.38 0.29,4.81 0.28,3.47 -1.23,3.78 -1.34,-1.13 -0.68,-4.16 -0.7,-5.87l-0.26 -15.93 -5.91 -0.03 0 28.44z"/>
   <path class="fil4" d="M250.39 123.42l51.81 0.01 0 -61.31c-1.33,-0.77 -2.99,-1.68 -4.13,-1.98 -7.22,2.67 -6.01,4.65 -5.96,7.51 0.06,3.46 0.55,7.78 0.12,11.12l-14.14 0.05 0.08 -14.87 -13.2 -0.27 -0.27 -23.28 -9.8 -0.81 0.01 25.61c-1.25,0.36 -2.83,0.64 -4.53,0.89l0 57.31z"/>
   <path class="fil5" d="M191.09 68.11l-9.93 -3.32 -0.18 -7.02 -9.09 0.07 0.32 20.66 -6.72 0 -0.13 26.69c-2.19,0.43 -4.32,0.18 -6.79,0.13l0.08 -12.81c-3.85,-0.16 -15.93,-0.51 -19.02,0.13 -0.08,8.9 -0.7,23.5 -0.08,30.73l51.53 0.01 0 -55.3z"/>
   <path class="fil6" d="M230.54 83.01c-0.7,-7.25 0.12,-26.05 0.25,-35.26 0.03,-2.54 0.87,-3.67 -1.67,-4.84 -1.47,-0.67 -4.27,-2.05 -5.65,-2.51 -3.22,1.01 -7.6,2.69 -7.6,5.25l-0.04 7.26 -8.4 0.02 -0.29 25.46 -12.31 0.05 0 44.95 51.81 0.01 0 -56.79c-3.34,0.45 -6.63,0.92 -8.56,1.73l-0.2 24.67 -3.55 -0.94 -0.14 -8.75 -3.65 -0.31z"/>
  </g>
 </g>
</svg>
